solid OpenSCAD_Model
  facet normal 1 -0 0
    outer loop
      vertex 22.7 -22.7 0
      vertex 22.7 22.7 -6
      vertex 22.7 22.7 0
    endloop
  endfacet
  facet normal 1 0 0
    outer loop
      vertex 22.7 22.7 -6
      vertex 22.7 -22.7 0
      vertex 22.7 -22.7 -6
    endloop
  endfacet
  facet normal 0 0 -1
    outer loop
      vertex 25 -25 0
      vertex 22.7 -22.7 0
      vertex 25 25 0
    endloop
  endfacet
  facet normal 0 0 -1
    outer loop
      vertex 25 -25 0
      vertex -22.7 -22.7 0
      vertex 22.7 -22.7 0
    endloop
  endfacet
  facet normal -0 0 -1
    outer loop
      vertex -22.7 -22.7 0
      vertex -25 -25 0
      vertex -22.7 22.7 0
    endloop
  endfacet
  facet normal 0 0 -1
    outer loop
      vertex -25 -25 0
      vertex -22.7 -22.7 0
      vertex 25 -25 0
    endloop
  endfacet
  facet normal 0 0 -1
    outer loop
      vertex 22.7 22.7 0
      vertex 25 25 0
      vertex 22.7 -22.7 0
    endloop
  endfacet
  facet normal 0 0 -1
    outer loop
      vertex -22.7 22.7 0
      vertex 25 25 0
      vertex 22.7 22.7 0
    endloop
  endfacet
  facet normal 0 0 -1
    outer loop
      vertex -22.7 22.7 0
      vertex -25 25 0
      vertex 25 25 0
    endloop
  endfacet
  facet normal 0 0 -1
    outer loop
      vertex -25 25 0
      vertex -22.7 22.7 0
      vertex -25 -25 0
    endloop
  endfacet
  facet normal 0 0 -1
    outer loop
      vertex -20.7 -20.7 0
      vertex 20.7 20.7 0
      vertex 20.7 -20.7 0
    endloop
  endfacet
  facet normal -0 0 -1
    outer loop
      vertex 20.7 20.7 0
      vertex -20.7 -20.7 0
      vertex -20.7 20.7 0
    endloop
  endfacet
  facet normal 0 0 -1
    outer loop
      vertex 22.7 -22.7 -6
      vertex 20.7 -20.7 -6
      vertex 22.7 22.7 -6
    endloop
  endfacet
  facet normal 0 0 -1
    outer loop
      vertex 22.7 -22.7 -6
      vertex -20.7 -20.7 -6
      vertex 20.7 -20.7 -6
    endloop
  endfacet
  facet normal -0 0 -1
    outer loop
      vertex -20.7 -20.7 -6
      vertex -22.7 -22.7 -6
      vertex -20.7 20.7 -6
    endloop
  endfacet
  facet normal 0 0 -1
    outer loop
      vertex -22.7 -22.7 -6
      vertex -20.7 -20.7 -6
      vertex 22.7 -22.7 -6
    endloop
  endfacet
  facet normal 0 0 -1
    outer loop
      vertex 20.7 20.7 -6
      vertex 22.7 22.7 -6
      vertex 20.7 -20.7 -6
    endloop
  endfacet
  facet normal 0 0 -1
    outer loop
      vertex -20.7 20.7 -6
      vertex 22.7 22.7 -6
      vertex 20.7 20.7 -6
    endloop
  endfacet
  facet normal 0 0 -1
    outer loop
      vertex -20.7 20.7 -6
      vertex -22.7 22.7 -6
      vertex 22.7 22.7 -6
    endloop
  endfacet
  facet normal 0 0 -1
    outer loop
      vertex -22.7 22.7 -6
      vertex -20.7 20.7 -6
      vertex -22.7 -22.7 -6
    endloop
  endfacet
  facet normal -1 0 0
    outer loop
      vertex -22.7 -22.7 -6
      vertex -22.7 22.7 0
      vertex -22.7 22.7 -6
    endloop
  endfacet
  facet normal -1 -0 0
    outer loop
      vertex -22.7 22.7 0
      vertex -22.7 -22.7 -6
      vertex -22.7 -22.7 0
    endloop
  endfacet
  facet normal 0 1 -0
    outer loop
      vertex 22.7 22.7 -6
      vertex -22.7 22.7 0
      vertex 22.7 22.7 0
    endloop
  endfacet
  facet normal 0 1 0
    outer loop
      vertex -22.7 22.7 0
      vertex 22.7 22.7 -6
      vertex -22.7 22.7 -6
    endloop
  endfacet
  facet normal 0 -1 0
    outer loop
      vertex -22.7 -22.7 -6
      vertex 22.7 -22.7 0
      vertex -22.7 -22.7 0
    endloop
  endfacet
  facet normal 0 -1 -0
    outer loop
      vertex 22.7 -22.7 0
      vertex -22.7 -22.7 -6
      vertex 22.7 -22.7 -6
    endloop
  endfacet
  facet normal -1 0 0
    outer loop
      vertex 20.7 -20.7 -6
      vertex 20.7 20.7 0
      vertex 20.7 20.7 -6
    endloop
  endfacet
  facet normal -1 -0 0
    outer loop
      vertex 20.7 20.7 0
      vertex 20.7 -20.7 -6
      vertex 20.7 -20.7 0
    endloop
  endfacet
  facet normal 1 -0 0
    outer loop
      vertex -20.7 -20.7 0
      vertex -20.7 20.7 -6
      vertex -20.7 20.7 0
    endloop
  endfacet
  facet normal 1 0 0
    outer loop
      vertex -20.7 20.7 -6
      vertex -20.7 -20.7 0
      vertex -20.7 -20.7 -6
    endloop
  endfacet
  facet normal 0 -1 0
    outer loop
      vertex -20.7 20.7 -6
      vertex 20.7 20.7 0
      vertex -20.7 20.7 0
    endloop
  endfacet
  facet normal 0 -1 -0
    outer loop
      vertex 20.7 20.7 0
      vertex -20.7 20.7 -6
      vertex 20.7 20.7 -6
    endloop
  endfacet
  facet normal 0 1 -0
    outer loop
      vertex 20.7 -20.7 -6
      vertex -20.7 -20.7 0
      vertex 20.7 -20.7 0
    endloop
  endfacet
  facet normal 0 1 0
    outer loop
      vertex -20.7 -20.7 0
      vertex 20.7 -20.7 -6
      vertex -20.7 -20.7 -6
    endloop
  endfacet
  facet normal 1 -0 0
    outer loop
      vertex 25 -25 2
      vertex 25 25 0
      vertex 25 25 2
    endloop
  endfacet
  facet normal 1 0 0
    outer loop
      vertex 25 25 0
      vertex 25 -25 2
      vertex 25 -25 0
    endloop
  endfacet
  facet normal -0 0 1
    outer loop
      vertex -25 25 2
      vertex 25 -25 2
      vertex 25 25 2
    endloop
  endfacet
  facet normal 0 0 1
    outer loop
      vertex 25 -25 2
      vertex -25 25 2
      vertex -25 -25 2
    endloop
  endfacet
  facet normal -1 0 0
    outer loop
      vertex -25 -25 0
      vertex -25 25 2
      vertex -25 25 0
    endloop
  endfacet
  facet normal -1 -0 0
    outer loop
      vertex -25 25 2
      vertex -25 -25 0
      vertex -25 -25 2
    endloop
  endfacet
  facet normal 0 1 -0
    outer loop
      vertex 25 25 0
      vertex -25 25 2
      vertex 25 25 2
    endloop
  endfacet
  facet normal 0 1 0
    outer loop
      vertex -25 25 2
      vertex 25 25 0
      vertex -25 25 0
    endloop
  endfacet
  facet normal 0 -1 0
    outer loop
      vertex -25 -25 0
      vertex 25 -25 2
      vertex -25 -25 2
    endloop
  endfacet
  facet normal 0 -1 -0
    outer loop
      vertex 25 -25 2
      vertex -25 -25 0
      vertex 25 -25 0
    endloop
  endfacet
endsolid OpenSCAD_Model
